<?xml version="1.0" encoding="UTF-8" standalone="no"?>
<!-- Created with Inkscape (http://www.inkscape.org/) -->
<svg
   xmlns:dc="http://purl.org/dc/elements/1.1/"
   xmlns:cc="http://web.resource.org/cc/"
   xmlns:rdf="http://www.w3.org/1999/02/22-rdf-syntax-ns#"
   xmlns:svg="http://www.w3.org/2000/svg"
   xmlns="http://www.w3.org/2000/svg"
   xmlns:xlink="http://www.w3.org/1999/xlink"
   xmlns:sodipodi="http://sodipodi.sourceforge.net/DTD/sodipodi-0.dtd"
   xmlns:inkscape="http://www.inkscape.org/namespaces/inkscape"
   width="128"
   height="128"
   id="svg2"
   sodipodi:version="0.32"
   inkscape:version="0.44"
   sodipodi:docbase="C:\CARLOS\Iconos_danger"
   sodipodi:docname="Danger toxic.svg"
   version="1.0">
  <defs
     id="defs4" />
  <sodipodi:namedview
     id="base"
     pagecolor="#ffffff"
     bordercolor="#666666"
     borderopacity="1.0"
     inkscape:pageopacity="0.0"
     inkscape:pageshadow="2"
     inkscape:zoom="2.9666517"
     inkscape:cx="92.483317"
     inkscape:cy="72.093695"
     inkscape:document-units="px"
     inkscape:current-layer="layer1"
     inkscape:window-width="1281"
     inkscape:window-height="965"
     inkscape:window-x="65"
     inkscape:window-y="103"
     objecttolerance="50"
     inkscape:object-bbox="false"
     inkscape:object-points="false"
     inkscape:object-nodes="false"
     inkscape:object-paths="false"
     inkscape:grid-bbox="false"
     inkscape:guide-bbox="false"
     height="128px"
     width="128px" />
  <metadata
     id="metadata7">
    <rdf:RDF>
      <cc:Work
         rdf:about="">
        <dc:format>image/svg+xml</dc:format>
        <dc:type
           rdf:resource="http://purl.org/dc/dcmitype/StillImage" />
        <dc:title>Sign toxic</dc:title>
        <dc:date>11/09/2006</dc:date>
        <dc:creator>
          <cc:Agent>
            <dc:title>h0us3s</dc:title>
          </cc:Agent>
        </dc:creator>
        <dc:language>es</dc:language>
        <dc:subject>
          <rdf:Bag>
            <rdf:li>Inkscape</rdf:li>
            <rdf:li>Sign Hazard</rdf:li>
            <rdf:li>Warning</rdf:li>
          </rdf:Bag>
        </dc:subject>
        <cc:license
           rdf:resource="http://web.resource.org/cc/PublicDomain" />
      </cc:Work>
      <cc:License
         rdf:about="http://web.resource.org/cc/PublicDomain">
        <cc:permits
           rdf:resource="http://web.resource.org/cc/Reproduction" />
        <cc:permits
           rdf:resource="http://web.resource.org/cc/Distribution" />
        <cc:permits
           rdf:resource="http://web.resource.org/cc/DerivativeWorks" />
      </cc:License>
    </rdf:RDF>
  </metadata>
  <g
     inkscape:groupmode="layer"
     id="layer2"
     inkscape:label="1"
     style="display:inline" />
  <g
     inkscape:label="Capa 1"
     inkscape:groupmode="layer"
     id="layer1"
     style="display:inline">
    <g
       id="g3141"
       transform="translate(80.72047,0)" />
    <g
       id="g2323"
       transform="matrix(1.8,0,0,1.8,-421.156,-272.2468)">
      <text
         xml:space="preserve"
         style="font-size:6.70238495px;font-style:normal;font-variant:normal;font-weight:bold;font-stretch:normal;text-align:start;line-height:125%;writing-mode:lr-tb;text-anchor:start;fill:black;fill-opacity:1;stroke:none;stroke-width:1px;stroke-linecap:butt;stroke-linejoin:miter;stroke-opacity:1;font-family:Arial"
         x="260.70145"
         y="219.99625"
         id="text4441"
         sodipodi:linespacing="125%"><tspan
           sodipodi:role="line"
           id="tspan4443"
           x="260.70145"
           y="219.99625">Toxic </tspan></text>
      <g
         transform="translate(-48.70547,-9.440477)"
         id="g5021">
        <g
           id="use4586"
           transform="translate(-296.1937,-211.7949)">
          <path
             transform="matrix(0.738729,0,0,0.738729,168.6073,57.12999)"
             d="M 602.84375,430.03125 C 601.57099,430.22839 600.45214,430.98062 599.8125,432.09375 L 564.1875,493.8125 C 563.44278,495.10948 563.4307,496.72518 564.1875,498.03125 C 564.94459,499.33791 566.35217,500.15742 567.875,500.15625 L 639.125,500.15625 C 640.64787,500.15742 642.0554,499.33783 642.8125,498.03125 C 643.56932,496.72517 643.55721,495.10947 642.8125,493.8125 L 607.1875,432.09375 C 606.31182,430.56876 604.57693,429.75973 602.84375,430.03125 z "
             id="path2301"
             style="opacity:1;color:black;fill:#fff000;fill-opacity:1;fill-rule:nonzero;stroke:none;stroke-width:9.14700031;stroke-linecap:round;stroke-linejoin:round;marker:none;marker-start:none;marker-mid:none;marker-end:none;stroke-miterlimit:4;stroke-dasharray:none;stroke-dashoffset:43.68000031;stroke-opacity:1;visibility:visible;display:inline;overflow:visible"
             xlink:href="#path3422"
             inkscape:original="M 602.84375 430.03125 C 601.57099 430.22839 600.45214 430.98062 599.8125 432.09375 L 564.1875 493.8125 C 563.44278 495.10948 563.4307 496.72518 564.1875 498.03125 C 564.94459 499.33791 566.35217 500.15742 567.875 500.15625 L 639.125 500.15625 C 640.64787 500.15742 642.0554 499.33783 642.8125 498.03125 C 643.56932 496.72517 643.55721 495.10947 642.8125 493.8125 L 607.1875 432.09375 C 606.31182 430.56876 604.57693 429.75973 602.84375 430.03125 z "
             inkscape:radius="0"
             sodipodi:type="inkscape:offset"
             inkscape:href="#path3422" />
          <path
             id="path2303"
             d="M 614.1875,376.09375 C 613.67863,376.17256 613.24534,376.47931 613,376.90625 L 586.5,422.8125 C 586.20978,423.31797 586.2089,423.96638 586.5,424.46875 C 586.79591,424.97943 587.34227,425.31295 587.9375,425.3125 L 640.9375,425.3125 C 641.53271,425.31295 642.07908,424.97944 642.375,424.46875 C 642.66608,423.96639 642.66523,423.31797 642.375,422.8125 L 615.875,376.90625 C 615.5348,376.31381 614.87688,375.98575 614.1875,376.09375 z M 614.4375,381.375 L 636.9375,421 L 591.90625,421 L 614.4375,381.375 z "
             style="opacity:1;color:black;fill:black;fill-opacity:1;fill-rule:nonzero;stroke:none;stroke-width:9.14700031;stroke-linecap:round;stroke-linejoin:round;marker:none;marker-start:none;marker-mid:none;marker-end:none;stroke-miterlimit:4;stroke-dasharray:none;stroke-dashoffset:43.68000031;stroke-opacity:1;visibility:visible;display:inline;overflow:visible" />
        </g>
        <path
           style="fill:black"
           d="M 328.36269,208.21486 C 327.56097,207.72136 326.62105,207.30968 324.63361,206.58152 L 322.80746,205.91246 L 322.26509,206.34951 C 320.70331,207.60801 318.91984,208.03182 317.11031,207.57446 C 315.88123,207.26381 314.74934,206.57164 314.29985,205.85583 L 314.17121,205.65096 L 313.10492,206.00747 C 311.27078,206.62071 309.54648,207.38245 308.69759,207.9545 C 307.85604,208.5216 307.22008,208.31883 307.08851,207.44145 C 307.05348,207.20782 306.93119,206.8408 306.81677,206.62587 C 306.55689,206.13767 306.55657,206.01011 306.81466,205.76765 C 307.00082,205.59277 307.09841,205.5758 307.831,205.59095 C 308.62226,205.6073 308.66799,205.5971 309.76587,205.15921 C 310.38432,204.91254 311.44578,204.47349 312.12466,204.18353 C 313.23906,203.70756 313.35371,203.63868 313.30463,203.47457 C 313.15186,202.96376 313.04787,202.85991 312.4895,202.66048 C 311.43556,202.28407 309.42146,201.67807 308.09502,201.33828 C 306.78092,201.00166 306.76605,200.99996 306.2661,201.12951 C 305.36124,201.36399 305.11109,201.27496 304.99922,200.67862 C 304.95357,200.43526 304.98528,200.27652 305.13653,199.99141 C 305.2492,199.77903 305.3587,199.37441 305.39288,199.04414 C 305.44084,198.5808 305.49362,198.43436 305.6617,198.29826 C 305.95252,198.06277 306.44336,198.14039 306.87945,198.49084 C 307.28579,198.81739 307.85725,199.07721 309.14812,199.52232 C 310.13116,199.86129 312.22536,200.48165 312.38658,200.48165 C 312.5153,200.48165 312.27614,199.52696 312.02157,199.0246 C 311.8857,198.75647 311.64103,198.48058 311.33258,198.2477 C 310.62332,197.7122 310.38836,197.25426 310.34371,196.32035 C 310.31505,195.72107 310.34566,195.43803 310.49081,194.96019 C 310.77452,194.02613 310.74586,193.83105 310.15197,192.65369 C 309.50716,191.37539 309.33813,190.63151 309.41242,189.39901 C 309.53006,187.44721 310.5565,185.33532 311.96455,184.14804 C 312.86222,183.39111 314.3173,182.61491 315.49353,182.26553 C 316.50232,181.96588 318.37119,181.88378 319.54001,182.08776 C 321.86053,182.49273 324.04458,183.46321 325.21516,184.60949 C 326.60481,185.97029 327.19541,187.43912 327.19447,189.53202 C 327.19359,191.4791 326.9,192.87071 326.14512,194.50587 L 325.80916,195.23358 L 325.98309,195.69844 C 326.1772,196.21726 326.20857,196.93123 326.0568,197.37649 C 326.00168,197.5382 325.72294,197.96243 325.43738,198.31923 C 324.92968,198.95358 324.67979,199.40784 324.56279,199.90906 C 324.48952,200.2229 324.3481,200.26065 326.81876,199.30698 C 328.31743,198.72851 328.89021,198.46498 329.18834,198.2168 C 329.6783,197.80893 330.01115,197.73296 330.43241,197.93285 C 330.82639,198.11981 331.00084,198.4457 331.00084,198.99476 C 331.00084,199.30251 331.07661,199.56631 331.27611,199.95313 C 331.61679,200.61369 331.56482,200.88369 331.06001,201.07582 C 330.76298,201.18887 330.6394,201.18265 329.75799,201.01024 C 329.22238,200.90548 328.63059,200.81364 328.4429,200.80615 C 328.00592,200.78873 327.20838,201.05058 325.63839,201.72695 L 324.38454,202.26712 L 324.20253,203.0827 C 324.10243,203.53127 323.99356,203.99559 323.96059,204.11452 C 323.89036,204.36788 323.75918,204.30985 326.52261,205.24791 C 328.38433,205.87987 328.50786,205.90309 329.45456,205.79902 C 329.9705,205.7423 330.04574,205.75432 330.2114,205.91999 C 330.45756,206.16615 330.44312,206.3337 330.13594,206.79592 C 329.99366,207.01 329.83321,207.40827 329.77937,207.68095 C 329.65643,208.30368 329.5619,208.43198 329.18412,208.48881 C 328.93974,208.52558 328.78202,208.47298 328.36269,208.21486 z M 329.38722,207.4879 C 329.43107,207.20506 329.54946,206.89493 329.6792,206.72303 C 329.8663,206.47512 329.88014,206.41662 329.77625,206.31273 C 329.67575,206.21224 329.57084,206.20924 329.1613,206.29514 C 328.69591,206.39276 328.61399,206.38235 327.73663,206.11421 C 327.22464,205.95774 326.10847,205.58056 325.25625,205.27603 C 324.09048,204.85947 323.67839,204.74589 323.59223,204.81739 C 323.45616,204.93032 323.09617,205.49833 323.14139,205.52875 C 323.23831,205.59396 323.87391,205.84314 325.39916,206.41389 C 327.44584,207.17977 328.15641,207.49462 328.51034,207.79244 C 328.69739,207.94983 328.85564,208.00828 329.04477,207.98983 C 329.29911,207.96503 329.3174,207.93821 329.38722,207.4879 z M 308.70466,207.3703 C 309.30506,206.97596 310.9053,206.28335 312.76353,205.61356 L 313.85826,205.21896 L 313.6914,204.73397 C 313.59963,204.46722 313.49623,204.22153 313.46164,204.18799 C 313.42704,204.15445 312.48289,204.50897 311.36353,204.97582 C 308.59715,206.12958 308.63462,206.11825 307.81248,206.04969 C 307.01943,205.98355 306.99063,206.01949 307.34292,206.63572 C 307.46128,206.84277 307.55859,207.13088 307.55916,207.27598 C 307.56146,207.85839 307.91697,207.88766 308.70466,207.3703 z M 319.7995,207.09188 C 320.46685,206.9315 321.43135,206.4588 321.88536,206.0696 C 322.34987,205.67141 323.27572,204.31482 323.48038,203.73252 C 323.67306,203.18432 323.77552,202.54572 323.91175,201.04388 C 323.96785,200.42543 324.08321,199.69562 324.1681,199.42207 C 324.25299,199.14852 324.2906,198.92471 324.25167,198.92471 C 324.07993,198.92471 323.64557,199.48503 323.48535,199.91326 C 323.38901,200.17074 323.25466,200.80671 323.18678,201.32652 C 323.05734,202.31785 322.94661,202.64408 322.73957,202.64408 C 322.67111,202.64408 322.55854,202.75343 322.48942,202.88709 C 322.34785,203.16087 321.61032,203.76853 321.41961,203.76853 C 321.35103,203.76853 321.17927,203.86584 321.03793,203.98478 C 320.89659,204.10371 320.68469,204.20102 320.56704,204.20102 C 320.44939,204.20102 320.23793,204.2606 320.09711,204.33342 C 319.95629,204.40624 319.71495,204.46611 319.5608,204.46646 C 319.40664,204.46681 318.96913,204.47978 318.58855,204.49528 C 317.88781,204.52381 317.07813,204.38059 316.62504,204.14795 C 316.49657,204.08199 316.30571,204.02802 316.20089,204.02802 C 316.08945,204.02802 315.87768,203.88435 315.6909,203.68204 C 315.51522,203.49174 315.31491,203.33605 315.24576,203.33605 C 315.08845,203.33605 314.91243,203.16552 314.91243,203.01313 C 314.91243,202.9497 314.77807,202.76344 314.61385,202.59922 C 314.41999,202.40535 314.29747,202.18644 314.2645,201.975 C 314.02609,200.44572 313.82358,199.86626 313.33259,199.30846 C 313.04132,198.97756 312.61501,198.66522 312.45464,198.66522 C 312.43018,198.66522 312.48944,198.85011 312.58633,199.07608 C 312.68321,199.30205 312.93168,200.18757 313.13847,201.04388 C 313.78213,203.70928 314.43084,205.45023 314.96536,205.94677 C 315.58721,206.52443 316.81396,207.08041 317.7998,207.23137 C 318.33554,207.3134 319.09948,207.26011 319.7995,207.09188 z M 318.97778,203.59044 C 318.97778,203.30722 318.94852,203.24955 318.80479,203.24955 C 318.66674,203.24955 318.63179,203.30722 318.63179,203.53499 C 318.63179,203.82649 318.77455,204.05692 318.90513,203.97622 C 318.94509,203.95152 318.97778,203.77792 318.97778,203.59044 z M 318.01111,203.59795 C 318.03802,203.32247 317.90112,203.12331 317.74933,203.21712 C 317.66493,203.26928 317.65731,203.80318 317.7398,203.88567 C 317.861,204.00687 317.98389,203.87654 318.01111,203.59795 z M 319.9126,203.48742 C 319.88499,203.10583 319.72314,202.99529 319.56432,203.24955 C 319.45525,203.42419 319.62461,203.85503 319.80233,203.85503 C 319.90985,203.85503 319.93349,203.77622 319.9126,203.48742 z M 317.1452,203.43751 C 317.16776,203.20915 317.14233,203.16306 316.99383,203.16306 C 316.87556,203.16306 316.81536,203.21902 316.81536,203.32898 C 316.81536,203.80988 317.09921,203.90327 317.1452,203.43751 z M 320.77807,203.26452 C 320.79769,203.06586 320.76924,202.99006 320.67505,202.99006 C 320.4918,202.99006 320.42281,203.13653 320.48652,203.39036 C 320.5602,203.68391 320.74451,203.60436 320.77807,203.26452 z M 316.25313,203.11981 C 316.25313,202.98502 316.20448,202.85852 316.14501,202.83869 C 316.07162,202.81423 316.03689,202.90453 316.03689,203.11981 C 316.03689,203.33509 316.07162,203.42539 316.14501,203.40092 C 316.20448,203.3811 316.25313,203.2546 316.25313,203.11981 z M 321.57136,202.83869 C 321.57215,202.72278 321.52022,202.64408 321.44294,202.64408 C 321.30819,202.64408 321.27276,202.87055 321.36848,203.11999 C 321.41258,203.23491 321.43856,203.24072 321.4969,203.14868 C 321.53713,203.08523 321.57063,202.94573 321.57136,202.83869 z M 315.6044,202.59572 C 315.6044,202.46571 315.55455,202.38458 315.47466,202.38458 C 315.3452,202.38458 315.28883,202.73215 315.40023,202.84355 C 315.49827,202.94159 315.6044,202.81276 315.6044,202.59572 z M 322.17816,202.46598 C 322.17816,202.21249 322.06624,202.1293 321.95888,202.303 C 321.87816,202.43361 321.99372,202.83435 322.0942,202.77225 C 322.14038,202.74371 322.17816,202.60589 322.17816,202.46598 z M 317.76683,202.35193 C 317.76683,201.74727 317.4134,201.57844 317.30301,202.13038 C 317.23709,202.45996 317.36959,202.73057 317.59687,202.73057 C 317.73993,202.73057 317.76683,202.67065 317.76683,202.35193 z M 318.70104,202.37718 C 318.73505,201.97149 318.50502,201.74007 318.31969,201.99352 C 318.19243,202.16757 318.15734,202.57327 318.26062,202.67656 C 318.29435,202.71028 318.40139,202.7265 318.49849,202.7126 C 318.63265,202.69339 318.68128,202.61286 318.70104,202.37718 z M 319.66976,202.39166 C 319.66976,202.02967 319.58776,201.8656 319.40684,201.8656 C 319.21636,201.8656 319.12328,202.11518 319.19991,202.42048 C 319.24069,202.58297 319.31256,202.64408 319.46289,202.64408 C 319.63379,202.64408 319.66976,202.60019 319.66976,202.39166 z M 316.90186,202.15637 C 316.90186,201.96458 316.85305,201.84144 316.76338,201.80704 C 316.51515,201.71178 316.35418,202.23479 316.56641,202.44702 C 316.734,202.61461 316.90186,202.46917 316.90186,202.15637 z M 320.69143,202.19424 C 320.72716,201.88464 320.56958,201.60611 320.35869,201.60611 C 320.21211,201.60611 320.18874,201.66639 320.18874,202.04434 C 320.18874,202.47138 320.19481,202.48187 320.4266,202.4552 C 320.61221,202.43385 320.67039,202.37652 320.69143,202.19424 z M 314.91243,202.16834 C 314.91243,202.04941 314.87351,201.9521 314.82593,201.9521 C 314.77836,201.9521 314.73944,202.04941 314.73944,202.16834 C 314.73944,202.28728 314.77836,202.38458 314.82593,202.38458 C 314.87351,202.38458 314.91243,202.28728 314.91243,202.16834 z M 312.78439,201.72184 C 312.70065,201.44411 312.59054,201.17385 312.5397,201.12125 C 312.48887,201.06866 311.74665,200.8072 310.89033,200.54024 C 308.30202,199.73331 306.99785,199.23999 306.65341,198.93756 C 306.48281,198.78778 306.2681,198.66522 306.17629,198.66522 C 305.94668,198.66522 305.80333,198.97029 305.86885,199.31951 C 305.90968,199.53715 305.86698,199.72067 305.69788,200.05438 C 305.57392,200.29901 305.49338,200.55361 305.51892,200.62016 C 305.57873,200.77603 305.97309,200.77464 306.41995,200.61697 C 306.74826,200.50114 306.83173,200.5091 307.6634,200.73551 C 308.15373,200.869 309.39177,201.23427 310.4146,201.54723 C 312.40275,202.15556 312.86319,202.28522 312.9082,202.24942 C 312.92384,202.23697 312.86812,201.99956 312.78439,201.72184 z M 316.02075,201.84398 C 315.99119,201.53747 315.88929,201.48393 315.75144,201.70248 C 315.63899,201.88075 315.73061,202.12509 315.90991,202.12509 C 316.01343,202.12509 316.04109,202.05495 316.02075,201.84398 z M 321.55773,201.92264 C 321.60593,201.67233 321.49407,201.34662 321.3599,201.34662 C 321.17341,201.34662 321.11707,201.49892 321.17981,201.83336 C 321.22126,202.05431 321.27578,202.12833 321.38201,202.10787 C 321.462,202.09246 321.54107,202.00911 321.55773,201.92264 z M 322.78364,201.774 C 322.78364,201.68166 322.74472,201.60611 322.69714,201.60611 C 322.64957,201.60611 322.61065,201.70572 322.61065,201.82746 C 322.61065,201.953 322.64809,202.02567 322.69714,201.99535 C 322.74472,201.96595 322.78364,201.86634 322.78364,201.774 z M 315.25842,201.38266 C 315.25842,201.18317 315.22209,201.08483 315.15648,201.1067 C 314.87299,201.20119 314.84739,201.69261 315.12596,201.69261 C 315.22026,201.69261 315.25842,201.60333 315.25842,201.38266 z M 325.98402,201.06637 C 327.25705,200.5765 328.20138,200.30866 328.65546,200.30866 C 328.86895,200.30866 329.32923,200.3888 329.67831,200.48675 C 330.88053,200.8241 331.26397,200.61137 330.745,199.89495 C 330.53518,199.6053 330.48186,199.44389 330.48186,199.09845 C 330.48186,198.78186 330.4357,198.61907 330.31041,198.49378 C 330.11678,198.30015 329.9518,198.33501 329.38323,198.68974 C 328.8653,199.01286 326.37985,200.03177 325.11905,200.43783 C 324.46584,200.6482 324.42708,200.6925 324.42708,201.22863 L 324.42708,201.69493 L 324.75144,201.55539 C 324.92984,201.47865 325.4845,201.25859 325.98402,201.06637 z M 318.67504,201.36917 C 318.91291,201.35186 319.26875,201.32849 319.4658,201.31725 C 319.66285,201.30601 319.88678,201.24477 319.96342,201.18116 C 320.04006,201.11755 320.20969,201.06761 320.34037,201.07019 C 320.47105,201.07276 320.70548,201.01693 320.86132,200.94613 C 321.01717,200.87533 321.22092,200.8416 321.31411,200.87118 C 321.42467,200.90627 321.58452,200.84794 321.77415,200.70331 C 322.10725,200.44924 322.31785,200.4247 322.52858,200.61541 C 322.665,200.73887 322.68112,200.72388 322.73786,200.42079 C 322.89808,199.56499 323.61318,198.57549 324.44849,198.05379 C 325.77079,197.22793 325.91771,196.70413 325.25483,195.17887 C 325.04407,194.69391 324.82437,194.10827 324.76661,193.87744 C 324.61091,193.25523 324.71526,191.79579 324.99018,190.75076 C 325.25982,189.72582 325.28818,188.993 325.07804,188.4804 C 324.89089,188.02386 324.94586,187.79751 325.20463,187.95911 C 325.70787,188.27339 325.79669,189.47046 325.43217,191.02563 C 325.16515,192.16483 325.13182,193.27875 325.34315,194.00032 C 325.41883,194.25871 325.51283,194.50379 325.55203,194.54494 C 325.71878,194.71993 326.33248,193.0211 326.54805,191.78782 C 326.74776,190.64519 326.74737,188.81978 326.54722,187.93962 C 325.95531,185.33667 323.63527,183.49878 319.92925,182.69697 C 318.77864,182.44804 316.9379,182.48218 315.84923,182.77265 C 313.1757,183.48597 311.50756,184.8363 310.41784,187.16928 C 310.015,188.03172 309.87081,188.84703 309.92211,189.97229 C 309.97415,191.11362 310.16884,191.78421 310.71199,192.69305 L 311.09737,193.33789 L 311.19373,193.08443 C 311.34172,192.69519 311.30412,191.61827 311.11075,190.70751 C 310.91518,189.7864 310.89364,189.34108 311.02225,188.87806 C 311.20929,188.20466 311.56329,188.4548 311.43354,189.16868 C 311.3763,189.48364 311.39411,189.85358 311.49871,190.52241 C 311.57788,191.02859 311.66267,191.75466 311.68713,192.13591 C 311.72756,192.76609 311.70369,192.91149 311.42446,193.7361 C 311.0669,194.79199 310.84695,195.80399 310.8474,196.39103 C 310.84795,197.09383 311.32726,197.64291 312.22741,197.97192 C 313.46417,198.42398 314.31022,199.35611 314.52497,200.50328 C 314.58284,200.8124 314.75263,200.92973 314.86918,200.74115 C 314.95558,200.60136 315.28473,200.64524 315.51791,200.82764 C 315.63684,200.92067 315.81696,200.99765 315.91818,200.99871 C 316.01939,200.99977 316.15066,201.05902 316.20988,201.13038 C 316.2712,201.20426 316.45978,201.26013 316.64785,201.26013 C 316.82951,201.26013 317.00062,201.29649 317.02808,201.34093 C 317.05555,201.38537 317.20916,201.40045 317.36945,201.37444 C 317.52974,201.34843 317.73337,201.3694 317.82197,201.42105 C 317.91058,201.4727 318.04145,201.48924 318.11281,201.4578 C 318.18417,201.42637 318.43718,201.38648 318.67504,201.36917 z M 317.10593,199.35323 C 316.54823,198.99593 316.54186,198.50387 317.07697,197.11629 C 317.41525,196.23909 317.9203,195.63783 318.31885,195.63783 C 319.0034,195.63783 319.92925,197.30346 319.92925,198.53499 C 319.92925,198.91269 319.89155,199.01496 319.67633,199.22115 C 319.35158,199.53228 318.76053,199.61853 318.43132,199.40283 C 318.22532,199.26785 318.19054,199.26703 318.01079,199.39293 C 317.74748,199.57737 317.43433,199.56363 317.10593,199.35323 z M 314.30226,196.2585 C 313.67115,195.85754 313.1237,194.90294 313.03566,194.04987 C 312.99456,193.65166 313.01591,193.56756 313.21957,193.32553 C 313.89027,192.52844 316.01447,192.17634 316.83136,192.72684 C 317.2517,193.01011 317.35073,193.2565 317.29858,193.8893 C 317.22159,194.82366 316.59112,195.87037 315.82065,196.34298 C 315.41451,196.59211 314.77103,196.55631 314.30226,196.2585 z M 321.69184,196.29022 C 320.7951,195.83609 319.84558,194.5582 319.84359,193.80279 C 319.84189,193.15319 320.78217,192.48694 322.08161,192.217 C 323.34152,191.95528 323.92464,192.24143 324.04317,193.17958 C 324.18302,194.2865 323.72032,195.8227 323.11785,196.2517 C 322.70871,196.54303 322.21726,196.5563 321.69184,196.29022 z M 322.22141,201.21688 C 322.22141,200.9962 322.03696,200.95624 321.98234,201.16508 C 321.95767,201.25942 321.96001,201.35913 321.98755,201.38667 C 322.0802,201.47932 322.22141,201.3768 322.22141,201.21688 z "
           id="path5018" />
      </g>
    </g>
  </g>
</svg>
